# xmcd
#
# Track frame offsets:
#	150
#	900
#	1650
#	2400
#	3150
#	3900
#	4650
#	5400
#	6150
#	6900
#	7650
#	8400
#	9150
#	9900
#	10650
#
# Disc length: 4379 seconds
#
# Revision: 1
# Processed by: cddbd v1.5.1PL0 Copyright (c) Steve Scherf et al.
# Submitted via: CDex 1.50Beta5
#
DISCID=5a11190f
DTITLE=Every Little Thing - Every Best Single 2
DYEAR=1900
DGENRE=Pop
TTITLE0=Pray
TTITLE1=sure
TTITLE2=Rescue me
TTITLE3=愛のカケラ
TTITLE4=fragile
TTITLE5=Graceful World
TTITLE6=jump
TTITLE7=キヲク
TTITLE8=ささやかな祈り
TTITLE9=UNSPEAKABLE
TTITLE10=nostalgia
TTITLE11=Grip!
TTITLE12=ファンダメンタル・ラブ
TTITLE13=For the moment（アコースティックバージョン）
TTITLE14=出逢った頃のように（アコースティックバージョン）
EXTD=
EXTT0=
EXTT1=
EXTT2=
EXTT3=
EXTT4=
EXTT5=
EXTT6=
EXTT7=
EXTT8=
EXTT9=
EXTT10=
EXTT11=
EXTT12=
EXTT13=
EXTT14=
PLAYORDER=
